{
    "asset" : {
        "generator" : "Khronos glTF Blender I/O v1.7.33",
        "version" : "2.0"
    },
    "scene" : 0,
    "scenes" : [
        {
            "name" : "Scene",
            "nodes" : [
                0
            ]
        }
    ],
    "nodes" : [
        {
            "mesh" : 0,
            "name" : "Joined",
            "rotation" : [
                0.7071068286895752,
                0,
                0,
                0.7071068286895752
            ],
            "scale" : [
                4.080732345581055,
                1,
                4.080732345581055
            ]
        }
    ],
    "meshes" : [
        {
            "name" : "Curve.006",
            "primitives" : [
                {
                    "attributes" : {
                        "POSITION" : 0,
                        "NORMAL" : 1,
                        "TEXCOORD_0" : 2
                    },
                    "indices" : 3
                }
            ]
        }
    ],
    "accessors" : [
        {
            "bufferView" : 0,
            "componentType" : 5126,
            "count" : 46590,
            "max" : [
                0.4660327434539795,
                0.048120561987161636,
                0.5112459659576416
            ],
            "min" : [
                -0.4663419723510742,
                -0.04812016710639,
                -0.5004534721374512
            ],
            "type" : "VEC3"
        },
        {
            "bufferView" : 1,
            "componentType" : 5126,
            "count" : 46590,
            "type" : "VEC3"
        },
        {
            "bufferView" : 2,
            "componentType" : 5126,
            "count" : 46590,
            "type" : "VEC2"
        },
        {
            "bufferView" : 3,
            "componentType" : 5123,
            "count" : 279462,
            "type" : "SCALAR"
        }
    ],
    "bufferViews" : [
        {
            "buffer" : 0,
            "byteLength" : 559080,
            "byteOffset" : 0
        },
        {
            "buffer" : 0,
            "byteLength" : 559080,
            "byteOffset" : 559080
        },
        {
            "buffer" : 0,
            "byteLength" : 372720,
            "byteOffset" : 1118160
        },
        {
            "buffer" : 0,
            "byteLength" : 558924,
            "byteOffset" : 1490880
        }
    ],
    "buffers" : [
        {
            "byteLength" : 2049804,
            "uri" : "data:application/octet-stream;base64,"
        }
    ]
}
